<?xml version="1.0" encoding="utf-8"?>
<!-- Generator: Adobe Illustrator 22.1.0, SVG Export Plug-In . SVG Version: 6.00 Build 0)  -->
<svg version="1.1" xmlns="http://www.w3.org/2000/svg" xmlns:xlink="http://www.w3.org/1999/xlink" x="0px" y="0px"
	 viewBox="0 0 40 40" style="enable-background:new 0 0 40 40;" xml:space="preserve">
<style type="text/css">
	.st0{display:none;}
	.st1{display:inline;fill:#FCFCFC;}
	.st2{display:inline;}
	.st3{fill:none;stroke:#262626;stroke-width:1.5;stroke-miterlimit:10;}
	.st4{fill:none;stroke:#262626;stroke-width:1.5;stroke-linecap:round;stroke-linejoin:round;stroke-miterlimit:10;}
</style>
<g id="Layer_2" class="st0">
	<rect x="0" y="0" class="st1" width="40" height="40"/>
</g>
<g id="Layer_1" class="st0">
	<g class="st2">
		<circle class="st3" cx="20.1" cy="22.4" r="9.3"/>
		<path class="st3" d="M34.1,9.1h-4.3L25.9,5c-0.8-0.9-2-1.4-3.2-1.4h-5.2c-1.2,0-2.4,0.5-3.2,1.4l-3.9,4.1H6
			c-2.9,0-5.3,2.4-5.3,5.3v17.7c0,2.9,2.4,5.3,5.3,5.3h28.1c2.9,0,5.3-2.4,5.3-5.3V14.4C39.4,11.5,37,9.1,34.1,9.1z"/>
	</g>
</g>
<g id="Layer_3" class="st0">
	<g class="st2">
		<polygon class="st4" points="0.7,4.1 39.2,4.1 20,38.6 16.3,17.5 		"/>
		<line class="st4" x1="16.3" y1="17.5" x2="39.2" y2="4.1"/>
	</g>
</g>
<g id="Layer_4">
	<g>
		<path class="st3" d="M28.3,39.2H11.7c-5.1,0-9.2-4.1-9.2-9.2V13.2c0-5.1,4.1-9.2,9.2-9.2h16.7c5.1,0,9.2,4.1,9.2,9.2v16.7
			C37.5,35.1,33.4,39.2,28.3,39.2z"/>
		<g>
			<path class="st3" d="M20,29.8"/>
			<path class="st3" d="M20,13.3"/>
		</g>
	</g>
	<path class="st3" d="M6.5,23.8c0,0,13.5-6.7,13.5-3.8s-0.4,4.2,1.9,3.8s12.5-4.5,12.5-4.5"/>
	<polyline class="st3" points="15.1,0.8 19.9,3.8 24.6,0.7 	"/>
</g>
</svg>
