<?xml version="1.0" encoding="utf-8"?>
<!-- Generator: Adobe Illustrator 21.0.0, SVG Export Plug-In . SVG Version: 6.00 Build 0)  -->
<svg version="1.1" id="Layer_1" xmlns="http://www.w3.org/2000/svg" xmlns:xlink="http://www.w3.org/1999/xlink" x="0px" y="0px"
	 viewBox="0 0 27 27" style="enable-background:new 0 0 27 27;" xml:space="preserve">
<style type="text/css">
	.st0{fill:#EAEAEA;}
</style>
<g>
	<rect x="21.7" y="0.8" transform="matrix(0.7071 -0.7071 0.7071 0.7071 4.7582 17.7645)" class="st0" width="4.3" height="4.6"/>
	<path class="st0" d="M24.7,18.9c-1.2-1.2-2.7-1.6-4.3-1.3c-0.1,0-0.2,0-0.3-0.1c-1.2-1.2-9.7-9.7-11-11c0,0-0.1-0.1-0.1-0.2
		c0.1-0.5,0.2-1,0.1-1.4C9.1,3.8,8.7,2.9,7.9,2.1c-1-1-2.2-1.5-3.6-1.4c-0.4,0-0.8,0.1-1.2,0.2c0,0,0,0,0,0.1
		c0.1,0.1,0.2,0.2,0.3,0.3C3.5,1.6,3.8,1.8,4,2c0.6,0.6,1.2,1.2,1.7,1.7C4.8,4.6,3.9,5.5,3,6.4c0,0-0.1-0.1-0.1-0.2
		C2.1,5.5,1.4,4.8,0.6,4C0.5,3.9,0.4,3.9,0.3,3.8C0,4.5-0.1,5.3,0.1,6.1C0.5,8.6,3,10.3,5.5,9.8c0.1,0,0.2,0,0.3,0.1
		c1.3,1.3,2.6,2.6,3.9,3.9c0,0,0,0,0,0l3.6,3.6c1.2,1.2,2.4,2.4,3.6,3.6c0,0,0.1,0.1,0,0.2c-0.2,0.8-0.2,1.5,0.1,2.2
		c0.6,1.8,1.7,2.9,3.6,3.3c0.8,0.2,1.6,0.1,2.4-0.2c-0.1-0.1-0.2-0.3-0.3-0.4c-0.7-0.8-1.5-1.5-2.2-2.2c-0.1-0.1-0.1-0.1-0.1-0.1
		c0.9-0.9,1.8-1.8,2.7-2.7c0,0,0.1,0.1,0.1,0.2c0.8,0.8,1.5,1.5,2.3,2.3c0.1,0.1,0.2,0.1,0.3,0.2c0.2-0.6,0.3-1.2,0.2-1.9
		C25.9,20.7,25.5,19.7,24.7,18.9z"/>
	<path class="st0" d="M4.9,24.2c-0.6-0.1-1.3-0.1-1.9-0.2c0-0.1,0-0.3-0.1-0.4c0-0.4-0.1-0.8-0.1-1.3c0-0.1-0.1-0.2-0.1-0.2
		c-0.3,0-0.7-0.1-1-0.1c-0.5,1.6-1,3.1-1.5,4.7c0.1,0,0.1,0,0.1,0c1.4-0.4,2.8-0.8,4.2-1.3c0.1,0,0.3,0,0.4-0.1c0.1-0.1,0-0.3,0-0.4
		C5,24.7,5,24.5,4.9,24.2z"/>
	<path class="st0" d="M2.9,20.9C3.3,21,3.6,21,4,21c0.1,0.6,0.1,1.2,0.2,1.9C4.8,23,5.4,23,6.1,23.1c0,0.3,0.1,0.7,0.1,1
		c2.2-2.2,6.1-6.1,6.1-6.1L9,14.8C9,14.8,5.2,18.7,2.9,20.9z"/>
	<path class="st0" d="M22.9,7.4c-1.1-1.1-2.1-2.2-3.2-3.3c-1.9,1.9-3.8,3.8-5.6,5.6l3.2,3.2C17.3,12.9,20.9,9.4,22.9,7.4z"/>
</g>
</svg>
